<svg width="24" height="24" viewBox="0 0 24 24" fill="none" xmlns="http://www.w3.org/2000/svg">
<path d="M5.48298 7.19704C6.69138 7.19704 7.67098 6.21744 7.67098 5.00904C7.67098 3.80065 6.69138 2.82104 5.48298 2.82104C4.27458 2.82104 3.29498 3.80065 3.29498 5.00904C3.29498 6.21744 4.27458 7.19704 5.48298 7.19704Z" fill="#0A0903"/>
<path d="M9.73697 8.85493V20.9939H13.506V14.9909C13.506 13.4069 13.804 11.8729 15.768 11.8729C17.705 11.8729 17.729 13.6839 17.729 15.0909V20.9949H21.5V14.3379C21.5 11.0679 20.796 8.55493 16.974 8.55493C15.139 8.55493 13.909 9.56193 13.406 10.5149H13.355V8.85493H9.73697ZM3.59497 8.85493H7.36997V20.9939H3.59497V8.85493Z" fill="#0A0903"/>
</svg>
