<?xml version="1.0" encoding="UTF-8"?>
<svg width="539px" height="511px" viewBox="0 0 539 511" version="1.1" xmlns="http://www.w3.org/2000/svg" xmlns:xlink="http://www.w3.org/1999/xlink">
    <!-- Generator: Sketch 63.1 (92452) - https://sketch.com -->
    <title>Group 2</title>
    <desc>Created with Sketch.</desc>
    <g id="Page-1" stroke="none" stroke-width="1" fill="#e7e7e7" fill-rule="evenodd">
        <g id="Artboard" transform="translate(-1182.000000, -1165.000000)" fill="#f26323" fill-rule="nonzero">
            <g id="Group-2" transform="translate(1182.000000, 1165.000000)">
                <rect id="smallRect" x="20" y="10" width="200" height="200" />
                <rect id="smallRect" x="318" y="10" width="200" height="200" />
                <rect id="smallRect" x="20" y="295" width="200" height="200" />
                <rect id="smallRect" x="318" y="295" width="200" height="200" />
                <path d="M241,11.3432836 C241,5.0761194 235.634453,0 229.00995,0 L11.9900498,0 C5.36554726,0 0,5.0761194 0,11.3432836 L0,216.656716 C0,222.923881 5.36554726,228 11.9900498,228 L229.00995,228 C235.634453,228 241,222.923881 241,216.656716 L241,11.3432836 Z M217.0199,205.313433 L23.9800995,205.313433 L23.9800995,22.6865672 L217.0199,22.6865672 L217.0199,205.313433 Z" id="Shape"></path>
                <path d="M539,11.3432836 C539,5.0761194 533.634453,0 527.00995,0 L309.99005,0 C303.365547,0 298,5.0761194 298,11.3432836 L298,216.656716 C298,222.923881 303.365547,228 309.99005,228 L527.00995,228 C533.634453,228 539,222.923881 539,216.656716 L539,11.3432836 Z M515.0199,205.313433 L321.9801,205.313433 L321.9801,22.6865672 L515.0199,22.6865672 L515.0199,205.313433 Z" id="Shape"></path>
                <path d="M241,294.343284 C237.422968,286.781095 233.426285,283 229.00995,283 L11.9900498,283 C5.36554726,283 0,288.076119 0,294.343284 L0,499.656716 C0,505.923881 5.36554726,511 11.9900498,511 L229.00995,511 C235.634453,511 241,505.923881 241,499.656716 L241,294.343284 Z M217.0199,487.179104 L23.9800995,487.179104 L23.9800995,305.686567 L217.0199,305.686567 L217.0199,487.179104 Z" id="Shape"></path>
                <path d="M539,294.343284 C539,288.076119 533.634453,283 527.00995,283 L309.99005,283 C303.365547,283 298,288.076119 298,294.343284 L298,499.656716 C298,505.923881 303.365547,511 309.99005,511 L527.00995,511 C533.634453,511 539,505.923881 539,499.656716 L539,294.343284 Z M515.0199,487.179104 L321.9801,487.179104 L321.9801,305.686567 L515.0199,305.686567 L515.0199,487.179104 Z" id="Shape"></path>
            </g>
        </g>
    </g>
</svg>
