<?xml version="1.0" encoding="UTF-8"?>
<svg width="525px" height="514px" viewBox="0 0 525 514" version="1.1" xmlns="http://www.w3.org/2000/svg" xmlns:xlink="http://www.w3.org/1999/xlink">
    <!-- Generator: Sketch 63.1 (92452) - https://sketch.com -->
    <title>list</title>
    <desc>Created with Sketch.</desc>
    <g id="Page-1" stroke="none" stroke-width="1" fill="none" fill-rule="evenodd">
        <g id="Artboard" transform="translate(-526.000000, -1164.000000)">
            <g id="list" transform="translate(538.000000, 1176.000000)">
                <path d="M481,192 L201,192 C189.96,192 181,199.914667 181,209.666667 L181,280.333333 C181,290.085333 189.96,298 201,298 L481,298 C492.04,298 501,290.085333 501,280.333333 L501,209.666667 C501,199.914667 492.04,192 481,192 Z" id="Path" stroke="#b7b7b7" stroke-width="23" fill-rule="nonzero"></path>
                <path d="M481,384 L201,384 C189.96,384 181,391.914667 181,401.666667 L181,472.333333 C181,482.085333 189.96,490 201,490 L481,490 C492.04,490 501,482.085333 501,472.333333 L501,401.666667 C501,391.914667 492.04,384 481,384 Z" id="Path" stroke="#b7b7b7" stroke-width="23" fill-rule="nonzero"></path>
                <path d="M99.375,384 L6.625,384 C2.968,384 0,391.914667 0,401.666667 L0,472.333333 C0,482.085333 2.968,490 6.625,490 L99.375,490 C103.032,490 106,482.085333 106,472.333333 L106,401.666667 C106,391.914667 103.032,384 99.375,384 Z" id="Path" stroke="#b7b7b7" stroke-width="23" fill-rule="nonzero"></path>
                <path d="M99.375,192 L6.625,192 C2.968,192 0,199.914667 0,209.666667 L0,280.333333 C0,290.085333 2.968,298 6.625,298 L99.375,298 C103.032,298 106,290.085333 106,280.333333 L106,209.666667 C106,199.914667 103.032,192 99.375,192 Z" id="Path" stroke="#b7b7b7" stroke-width="23" fill-rule="nonzero"></path>
                <path d="M99.375,0 L6.625,0 C2.968,0 0,7.91466667 0,17.6666667 L0,88.3333333 C0,98.0853333 2.968,106 6.625,106 L99.375,106 C103.032,106 106,98.0853333 106,88.3333333 L106,17.6666667 C106,7.91466667 103.032,0 99.375,0 Z" id="Path" stroke="#b7b7b7" stroke-width="23" fill-rule="nonzero"></path>
                <path d="M481,0 L201,0 C189.96,0 181,7.91466667 181,17.6666667 L181,88.3333333 C181,98.0853333 189.96,106 201,106 L481,106 C492.04,106 501,98.0853333 501,88.3333333 L501,17.6666667 C501,7.91466667 492.04,0 481,0 Z" id="Path" stroke="#b7b7b7" stroke-width="23" fill-rule="nonzero"></path>
                <path d="" id="Path-2" stroke="#b7b7b7"></path>
            </g>
        </g>
    </g>
</svg>
