<?xml version="1.0" encoding="UTF-8"?>
<svg width="49px" height="42px" viewBox="0 0 49 42" version="1.1" xmlns="http://www.w3.org/2000/svg" xmlns:xlink="http://www.w3.org/1999/xlink">
    <!-- Generator: Sketch 63.1 (92452) - https://sketch.com -->
    <title>upload</title>
    <desc>Created with Sketch.</desc>
    <g id="Welcome" stroke="none" stroke-width="1" fill="none" fill-rule="evenodd">
        <g id="Group" transform="translate(-932.000000, -228.000000)" fill="#ADADAD" fill-rule="nonzero">
            <g id="upload" transform="translate(932.000000, 228.000000)">
                <path d="M39.8509151,11.0601275 C39.3269587,8.14907177 37.7853177,5.49238016 35.4275139,3.47630923 C32.8077319,1.23413688 29.4020152,0 25.8552334,0 C23.1145384,0 20.4443759,0.734829593 18.1571047,2.11970075 C16.2527247,3.2690496 14.6707794,4.82349681 13.552334,6.6511499 C13.0686819,6.56636187 12.5648776,6.51925741 12.0610734,6.51925741 C7.7787374,6.51925741 4.29241209,9.77888612 4.29241209,13.7827653 C4.29241209,14.3009144 4.3528686,14.8002217 4.45362945,15.2901081 C1.68270615,17.1742865 0,20.2078138 0,23.4391798 C0,26.048767 1.03783673,28.582987 2.93214065,30.589637 C4.87682501,32.6433915 7.44622661,33.8586866 10.1869217,34 C10.2171499,34 10.2373021,34 10.2675303,34 L18.9329632,34 C19.6886695,34 20.2932346,33.4347465 20.2932346,32.7281796 C20.2932346,32.0216126 19.6886695,31.4563591 18.9329632,31.4563591 L10.3078347,31.4563591 C6.18671602,31.2208368 2.72054287,27.5561097 2.72054287,23.4297589 C2.72054287,20.7636464 4.25210775,18.2765309 6.72074851,16.9293433 C7.29508534,16.6184539 7.53691137,15.9684123 7.31523751,15.384317 C7.11371581,14.8755888 7.01295497,14.3385979 7.01295497,13.7639235 C7.01295497,11.1637573 9.28007403,9.04405653 12.0610734,9.04405653 C12.6555624,9.04405653 13.2399753,9.13826545 13.7840839,9.32668329 C14.4491055,9.5527847 15.1846597,9.27015794 15.4869422,8.67664173 C17.3711701,4.93654752 21.4419083,2.52479911 25.8653095,2.52479911 C31.8101995,2.52479911 36.7172527,6.68883347 37.2815135,12.2094763 C37.34197,12.7841507 37.8054699,13.2457745 38.410035,13.3399834 C42.8938927,14.0559712 46.2794571,17.9279579 46.2794571,22.3463563 C46.2794571,27.0285398 42.339708,31.0983652 37.4830352,31.4469382 L30.0569607,31.4469382 C29.3012544,31.4469382 28.6966893,32.0121917 28.6966893,32.7187587 C28.6966893,33.4253256 29.3012544,33.9905791 30.0569607,33.9905791 L37.5334156,33.9905791 C37.5636438,33.9905791 37.5938721,33.9905791 37.6341764,33.9905791 C40.7073823,33.7833195 43.5790664,32.4643946 45.7151964,30.2599058 C47.8412503,28.0742588 49,25.2668329 49,22.3463563 C48.9899239,17.0612358 45.1307835,12.3602106 39.8509151,11.0601275 Z" id="Path"></path>
                <path d="M32.6023831,24.0414159 C33.132539,23.5348673 33.132539,22.7224779 32.6023831,22.2159292 L25.4502795,15.3823009 C25.2002059,15.1433628 24.850103,15 24.5,15 C24.149897,15 23.7997941,15.1338053 23.5497205,15.3823009 L16.3976169,22.2159292 C15.867461,22.7224779 15.867461,23.5348673 16.3976169,24.0414159 C16.6576934,24.2899115 17.0077964,24.4237168 17.3478964,24.4237168 C17.6879965,24.4237168 18.0380994,24.299469 18.2981759,24.0414159 L23.1496028,19.4060177 L23.1496028,40.7097345 C23.1496028,41.4265487 23.7497793,42 24.5,42 C25.2502207,42 25.8503972,41.4265487 25.8503972,40.7097345 L25.8503972,19.4060177 L30.7018241,24.0414159 C31.2219771,24.5479646 32.0722271,24.5479646 32.6023831,24.0414159 Z" id="Path"></path>
            </g>
        </g>
    </g>
</svg>