<svg width="24" height="24" viewBox="0 0 24 24" fill="none" xmlns="http://www.w3.org/2000/svg">
<path d="M12.0005 4.56105C10.8965 3.55505 9.48847 3.00305 8.00447 3.00305C6.42647 3.00305 4.93247 3.62605 3.79147 4.76105C1.43847 7.12405 1.43947 10.8201 3.79347 13.1731L11.1255 20.5051C11.2955 20.8041 11.6235 20.9971 12.0005 20.9971C12.3225 20.9971 12.6095 20.8341 12.7925 20.5881L20.2075 13.1731C22.5615 10.8191 22.5615 7.12405 20.2055 4.75705C19.0685 3.62605 17.5745 3.00305 15.9965 3.00305C14.5135 3.00305 13.1045 3.55505 12.0005 4.56105ZM18.7915 6.17105C20.3545 7.74205 20.3555 10.1961 18.7935 11.7591L12.0005 18.5521L5.20747 11.7591C3.64547 10.1961 3.64647 7.74205 5.20547 6.17505C5.96547 5.41905 6.95947 5.00305 8.00447 5.00305C9.04947 5.00305 10.0395 5.41905 10.7935 6.17305L11.2935 6.67305C11.6845 7.06405 12.3165 7.06405 12.7075 6.67305L13.2075 6.17305C14.7195 4.66405 17.2815 4.66805 18.7915 6.17105Z" fill="#F26323"/>
</svg>
