<svg width="323" height="40" viewBox="0 0 323 40" fill="none" xmlns="http://www.w3.org/2000/svg">
    <g clip-path="url(#clip0)">
        <rect width="55.9423" height="40" rx="2" fill="white"/>
        <mask id="mask0" mask-type="alpha" maskUnits="userSpaceOnUse" x="0" y="0" width="56" height="40">
            <rect width="55.9423" height="40" rx="2" fill="white"/>
        </mask>
        <g mask="url(#mask0)">
            <path fill-rule="evenodd" clip-rule="evenodd" d="M55.9423 0H0V2.66667H55.9423V0ZM55.9423 5.33328H0V7.99995H55.9423V5.33328ZM0 10.6666H55.9423V13.3332H0V10.6666ZM55.9423 15.9999H0V18.6665H55.9423V15.9999ZM0 21.3335H55.9423V24.0002H0V21.3335ZM55.9423 26.6668H0V29.3335H55.9423V26.6668ZM0 32.0001H55.9423V34.6667H0V32.0001ZM55.9423 37.3334H0V40H55.9423V37.3334Z" fill="#D02F44"/>
            <rect width="23.9753" height="18.6667" fill="#46467F"/>
            <g filter="url(#filter0_d)">
                <path fill-rule="evenodd" clip-rule="evenodd" d="M5.32749 3.99935C5.32749 4.73573 4.73115 5.33268 3.99553 5.33268C3.25991 5.33268 2.66357 4.73573 2.66357 3.99935C2.66357 3.26297 3.25991 2.66602 3.99553 2.66602C4.73115 2.66602 5.32749 3.26297 5.32749 3.99935ZM10.6557 3.99935C10.6557 4.73573 10.0593 5.33268 9.3237 5.33268C8.58808 5.33268 7.99174 4.73573 7.99174 3.99935C7.99174 3.26297 8.58808 2.66602 9.3237 2.66602C10.0593 2.66602 10.6557 3.26297 10.6557 3.99935ZM14.6509 5.33268C15.3865 5.33268 15.9828 4.73573 15.9828 3.99935C15.9828 3.26297 15.3865 2.66602 14.6509 2.66602C13.9153 2.66602 13.3189 3.26297 13.3189 3.99935C13.3189 4.73573 13.9153 5.33268 14.6509 5.33268ZM21.311 3.99935C21.311 4.73573 20.7146 5.33268 19.979 5.33268C19.2434 5.33268 18.6471 4.73573 18.6471 3.99935C18.6471 3.26297 19.2434 2.66602 19.979 2.66602C20.7146 2.66602 21.311 3.26297 21.311 3.99935ZM6.65914 7.99933C7.39476 7.99933 7.9911 7.40238 7.9911 6.666C7.9911 5.92962 7.39476 5.33266 6.65914 5.33266C5.92352 5.33266 5.32718 5.92962 5.32718 6.666C5.32718 7.40238 5.92352 7.99933 6.65914 7.99933ZM13.3192 6.666C13.3192 7.40238 12.7229 7.99933 11.9873 7.99933C11.2517 7.99933 10.6553 7.40238 10.6553 6.666C10.6553 5.92962 11.2517 5.33266 11.9873 5.33266C12.7229 5.33266 13.3192 5.92962 13.3192 6.666ZM17.3154 7.99933C18.0511 7.99933 18.6474 7.40238 18.6474 6.666C18.6474 5.92962 18.0511 5.33266 17.3154 5.33266C16.5798 5.33266 15.9835 5.92962 15.9835 6.666C15.9835 7.40238 16.5798 7.99933 17.3154 7.99933ZM21.311 9.33263C21.311 10.069 20.7146 10.666 19.979 10.666C19.2434 10.666 18.6471 10.069 18.6471 9.33263C18.6471 8.59625 19.2434 7.9993 19.979 7.9993C20.7146 7.9993 21.311 8.59625 21.311 9.33263ZM14.6509 10.666C15.3865 10.666 15.9828 10.069 15.9828 9.33263C15.9828 8.59625 15.3865 7.9993 14.6509 7.9993C13.9153 7.9993 13.3189 8.59625 13.3189 9.33263C13.3189 10.069 13.9153 10.666 14.6509 10.666ZM10.6557 9.33263C10.6557 10.069 10.0593 10.666 9.3237 10.666C8.58808 10.666 7.99174 10.069 7.99174 9.33263C7.99174 8.59625 8.58808 7.9993 9.3237 7.9993C10.0593 7.9993 10.6557 8.59625 10.6557 9.33263ZM3.99553 10.666C4.73115 10.666 5.32749 10.069 5.32749 9.33263C5.32749 8.59625 4.73115 7.9993 3.99553 7.9993C3.25991 7.9993 2.66357 8.59625 2.66357 9.33263C2.66357 10.069 3.25991 10.666 3.99553 10.666ZM7.9911 11.9993C7.9911 12.7357 7.39476 13.3326 6.65914 13.3326C5.92352 13.3326 5.32718 12.7357 5.32718 11.9993C5.32718 11.2629 5.92352 10.6659 6.65914 10.6659C7.39476 10.6659 7.9911 11.2629 7.9911 11.9993ZM11.9873 13.3326C12.7229 13.3326 13.3192 12.7357 13.3192 11.9993C13.3192 11.2629 12.7229 10.6659 11.9873 10.6659C11.2517 10.6659 10.6553 11.2629 10.6553 11.9993C10.6553 12.7357 11.2517 13.3326 11.9873 13.3326ZM18.6474 11.9993C18.6474 12.7357 18.0511 13.3326 17.3154 13.3326C16.5798 13.3326 15.9835 12.7357 15.9835 11.9993C15.9835 11.2629 16.5798 10.6659 17.3154 10.6659C18.0511 10.6659 18.6474 11.2629 18.6474 11.9993ZM19.979 15.9993C20.7146 15.9993 21.311 15.4023 21.311 14.6659C21.311 13.9295 20.7146 13.3326 19.979 13.3326C19.2434 13.3326 18.6471 13.9295 18.6471 14.6659C18.6471 15.4023 19.2434 15.9993 19.979 15.9993ZM15.9828 14.6659C15.9828 15.4023 15.3865 15.9993 14.6509 15.9993C13.9153 15.9993 13.3189 15.4023 13.3189 14.6659C13.3189 13.9295 13.9153 13.3326 14.6509 13.3326C15.3865 13.3326 15.9828 13.9295 15.9828 14.6659ZM9.3237 15.9993C10.0593 15.9993 10.6557 15.4023 10.6557 14.6659C10.6557 13.9295 10.0593 13.3326 9.3237 13.3326C8.58808 13.3326 7.99174 13.9295 7.99174 14.6659C7.99174 15.4023 8.58808 15.9993 9.3237 15.9993ZM5.32749 14.6659C5.32749 15.4023 4.73115 15.9993 3.99553 15.9993C3.25991 15.9993 2.66357 15.4023 2.66357 14.6659C2.66357 13.9295 3.25991 13.3326 3.99553 13.3326C4.73115 13.3326 5.32749 13.9295 5.32749 14.6659Z" fill="url(#paint0_linear)"/>
            </g>
        </g>
    </g>
    <g clip-path="url(#clip1)">
        <path d="M248.836 39.1366C248.78 39.0062 248.74 38.8688 248.667 38.7522C246.987 36.1018 245.305 33.4583 243.625 30.8096C243.59 30.7557 243.564 30.6949 243.523 30.6183L248.806 15.6775L254.689 26.3575L263.043 2.87051H271.14C273.708 10.6427 276.284 18.4253 278.847 26.1749C278.935 26.1922 278.95 26.2009 278.966 26.1957C278.982 26.1922 278.996 26.1783 279.005 26.1644C279.05 26.0775 279.098 25.9922 279.14 25.9053L289.829 2.93138C289.834 2.91746 289.849 2.90529 289.88 2.87225H300.343C300.292 3.01659 300.257 3.15051 300.201 3.27225C298.567 6.98529 296.93 10.6983 295.3 14.4096C293.536 18.4166 291.78 22.4288 290.021 26.4375C288.231 30.5053 286.436 34.5714 284.65 38.6409C284.579 38.8009 284.538 38.9731 284.485 39.1366H273.968C273.934 38.9522 273.917 38.7592 273.856 38.5818C272.679 35.1175 271.495 31.6531 270.312 28.1905L267.688 20.4983L266.894 18.1766C266.763 18.3012 266.664 18.458 266.608 18.6322C266.141 19.9401 265.681 21.2496 265.213 22.5575C263.746 26.6566 262.277 30.7609 260.803 34.8618C260.29 36.2879 259.766 37.714 259.247 39.1366H248.836ZM216.449 39.1366C216.455 38.9453 216.463 38.754 216.463 38.5609L216.465 3.45485V2.86181C216.587 2.85312 216.668 2.84268 216.753 2.84268C222.29 2.84268 227.829 2.83051 233.366 2.85659C235.423 2.86703 237.442 3.17659 239.361 3.90529C241.576 4.74703 243.328 6.09833 244.658 7.99398L238.29 26.0131C237.705 26.2427 237.096 26.3105 236.499 26.4096C235.321 26.6044 234.132 26.6357 232.941 26.6357H226.482C226.468 26.8722 226.45 27.0601 226.45 27.2444V37.5992C226.45 38.1105 226.441 38.6235 226.438 39.1366H216.448H216.449ZM226.478 19.6236C226.643 19.6427 226.745 19.6635 226.846 19.6635C228.005 19.6635 229.162 19.6896 230.317 19.6566C231.187 19.627 232.059 19.5922 232.919 19.4079C234.546 19.0531 235.695 18.2044 236.215 16.7366C236.704 15.3575 236.723 13.9609 236.144 12.5922C235.688 11.5227 234.884 10.7557 233.708 10.3314C232.767 9.99746 231.778 9.8792 230.78 9.86007C229.467 9.83746 228.151 9.85312 226.836 9.85312C226.723 9.85312 226.607 9.87746 226.477 9.89486V19.6253L226.478 19.6236ZM310.565 39.1366C310.531 38.9992 310.52 38.8549 310.465 38.7227C309.692 36.7349 308.911 34.7435 308.129 32.7575C308.116 32.7279 308.09 32.7053 308.029 32.6253C307.87 32.6183 307.666 32.6027 307.463 32.6027C303.171 32.5992 298.877 32.5992 294.586 32.5992C294.379 32.5992 294.172 32.5922 293.89 32.587L296.903 25.5836H305.663L301.508 14.9001L306.687 2.88616C306.901 3.40094 307.076 3.82007 307.249 4.24268L314.823 22.6705L321.337 38.5366C321.409 38.7122 321.514 38.874 321.605 39.0409C321.588 39.0757 321.571 39.1314 321.553 39.1349C321.412 39.1401 321.273 39.1386 321.132 39.1386H310.564L310.565 39.1366Z" fill="#F26323"/>
        <path d="M57.0375 4.64653C59.5447 2.81697 62.7321 1.90392 66.6032 1.90392C71.214 1.90392 75.1682 2.86914 78.4659 4.80305V13.5996C75.4328 11.2517 71.7347 10.1144 67.3615 10.1839C64.3657 10.2187 62.8662 10.9961 62.8662 12.5109C62.8662 13.2361 63.3242 13.8848 64.2317 14.4517C65.1393 15.0239 66.2742 15.5057 67.638 15.9004C69.0002 16.3004 70.4727 16.8309 72.0537 17.5074C73.5765 18.148 75.0528 18.8995 76.471 19.7561C77.8349 20.5857 78.9697 21.7648 79.8773 23.3004C80.7865 24.8378 81.2412 26.6048 81.2412 28.6065C81.2412 35.9874 76.5287 39.6778 67.1105 39.6778C61.9586 39.6778 57.4327 38.5752 53.5311 36.3683V27.3109C57.3988 30.0361 61.6906 31.3978 66.4014 31.3978C68.2843 31.3978 69.6313 31.2187 70.4387 30.8552C71.2462 30.4935 71.6516 29.8639 71.6516 28.9665C71.6516 28.0361 71.0206 27.2239 69.7585 26.5352C68.4964 25.8448 66.9646 25.1961 65.1647 24.5944C63.3287 23.977 61.5258 23.2606 59.7635 22.4483C57.9654 21.6187 56.4319 20.3613 55.1698 18.6709C53.9077 16.9804 53.2783 14.9457 53.2783 12.5631C53.2783 9.11436 54.5336 6.4761 57.0392 4.64653H57.0375ZM88.0198 16.7039C90.7611 14.3909 94.0521 13.2361 97.8859 13.2361C100.546 13.2361 103.034 13.8048 105.357 14.9457V22.4483C103.49 21.3242 101.364 20.7338 99.1989 20.7387C97.3142 20.7387 95.7671 21.2065 94.5559 22.137C93.3447 23.0691 92.7357 24.5161 92.7357 26.4848C92.7357 28.3457 93.3447 29.7596 94.5559 30.7248C95.7671 31.6935 97.2633 32.1752 99.0462 32.1752C101.538 32.1752 103.723 31.6222 105.609 30.5196V38.0222C103.019 39.1283 100.242 39.6778 97.2803 39.6778C93.5788 39.6778 90.4236 38.5996 87.8146 36.4431C85.209 34.2883 83.9044 31.1387 83.9044 26.9996C83.9044 22.4483 85.2751 19.0152 88.0181 16.7039H88.0198ZM118.069 33.0291C118.605 33.497 119.313 33.7283 120.19 33.7283C121.703 33.7283 123.033 33.2987 124.176 32.4344V29.0691C123.181 28.7469 122.141 28.5901 121.097 28.6048C118.539 28.6048 117.263 29.5022 117.263 31.2952C117.263 31.9857 117.53 32.5631 118.069 33.0291ZM134.422 33.3665C134.758 33.3665 135.079 33.3144 135.382 33.21V38.6431C134.102 39.1631 132.655 39.4204 131.04 39.4204C128.349 39.4204 126.431 38.5074 125.286 36.6761C122.797 38.6796 119.984 39.6796 116.858 39.6796C114.468 39.6796 112.464 38.9909 110.849 37.6083C109.235 36.2309 108.427 34.3683 108.427 32.0204C108.427 30.5352 108.749 29.2344 109.387 28.1144C109.986 27.032 110.869 26.1443 111.937 25.5526C112.985 24.9703 114.105 24.5351 115.267 24.2587C116.467 23.9779 117.695 23.839 118.926 23.8448C120.743 23.8448 122.493 24.0361 124.176 24.4135V23.5335C124.176 22.6031 123.745 21.8517 122.887 21.2831C122.03 20.7144 120.777 20.4309 119.129 20.4309C116.573 20.4309 113.745 21.0691 110.648 22.3439V14.9439C113.947 13.8396 117.092 13.29 120.086 13.29C124.225 13.29 127.372 14.1683 129.526 15.9265C131.681 17.6883 132.756 20.6691 132.756 24.8796V31.8135C132.756 32.85 133.313 33.3665 134.422 33.3665ZM153.744 13.2883C156.906 13.2883 159.313 14.2448 160.962 16.1613C162.611 18.0744 163.435 20.5178 163.435 23.4831V38.9039H154.857V24.6726C154.857 23.3978 154.517 22.4291 153.847 21.7752C153.172 21.1196 152.281 20.7909 151.17 20.7909C149.521 20.7909 148.142 21.5161 147.031 22.9648V38.9039H138.453V14.0639H146.022V16.9091C148.21 14.497 150.784 13.2883 153.745 13.2883H153.744ZM184.119 21.4378C183.239 20.8337 182.201 20.5182 181.142 20.5335C179.457 20.5335 178.173 21.1196 177.279 22.29C176.388 23.4657 175.942 24.8604 175.942 26.4831C175.942 28.1057 176.388 29.5022 177.279 30.6744C178.171 31.8465 179.457 32.4344 181.142 32.4344C182.251 32.4344 183.243 32.1335 184.119 31.53C184.994 30.9265 185.632 30.1909 186.036 29.33V23.6378C185.632 22.777 184.994 22.0413 184.119 21.4378ZM194.618 2.67958V38.9039H187.047V35.5387C186.373 36.7126 185.337 37.6952 183.942 38.4883C182.546 39.2813 180.838 39.6778 178.819 39.6778C176.867 39.6778 175.118 39.3004 173.569 38.5404C172.022 37.7822 170.796 36.7648 169.885 35.4883C168.975 34.2078 168.276 32.7831 167.815 31.2709C167.342 29.7215 167.103 28.1067 167.108 26.4831C167.108 24.8274 167.345 23.2309 167.815 21.697C168.275 20.1841 168.975 18.7589 169.885 17.4778C170.796 16.2031 172.022 15.1857 173.569 14.4257C175.118 13.6674 176.867 13.2883 178.818 13.2883C181.881 13.2883 184.287 14.2204 186.037 16.0831V2.67784H194.618V2.67958ZM199.805 38.9022H208.387V14.0639H199.805V38.9022ZM207.603 9.32827C206.679 10.1404 205.508 10.5474 204.095 10.5474C202.68 10.5474 201.513 10.1404 200.587 9.33001C199.661 8.51784 199.201 7.30218 199.201 5.68131C199.201 4.09349 199.671 2.89697 200.612 2.08479C201.554 1.27262 202.716 0.869141 204.095 0.869141C205.508 0.869141 206.679 1.27436 207.602 2.08479C208.528 2.89523 208.993 4.09349 208.993 5.68305C208.993 7.30218 208.528 8.51784 207.602 9.32827H207.603Z" fill="#505865"/>
    </g>
    <defs>
        <filter id="filter0_d" x="2.66357" y="2.66602" width="18.6474" height="14.3332" filterUnits="userSpaceOnUse" color-interpolation-filters="sRGB">
            <feFlood flood-opacity="0" result="BackgroundImageFix"/>
            <feColorMatrix in="SourceAlpha" type="matrix" values="0 0 0 0 0 0 0 0 0 0 0 0 0 0 0 0 0 0 127 0"/>
            <feOffset dy="1"/>
            <feColorMatrix type="matrix" values="0 0 0 0 0 0 0 0 0 0 0 0 0 0 0 0 0 0 0.06 0"/>
            <feBlend mode="normal" in2="BackgroundImageFix" result="effect1_dropShadow"/>
            <feBlend mode="normal" in="SourceGraphic" in2="effect1_dropShadow" result="shape"/>
        </filter>
        <linearGradient id="paint0_linear" x1="2.66357" y1="2.66602" x2="2.66357" y2="15.9993" gradientUnits="userSpaceOnUse">
            <stop stop-color="white"/>
            <stop offset="1" stop-color="#F0F0F0"/>
        </linearGradient>
        <clipPath id="clip0">
            <path d="M0 20C0 8.9657 8.94508 0 19.9794 0C31.0137 0 39.9588 8.9657 39.9588 20C39.9588 31.0343 31.0137 40 19.9794 40C8.94508 40 0 31.0343 0 20Z" fill="white"/>
        </clipPath>
        <clipPath id="clip1">
            <rect width="269.722" height="40" fill="white" transform="translate(53.2783)"/>
        </clipPath>
    </defs>
</svg>
