<svg width="194" height="24" viewBox="0 0 194 24" fill="none" xmlns="http://www.w3.org/2000/svg">
    <g clip-path="url(#clip0)">
        <rect width="33.6" height="24" rx="2" fill="white"/>
        <mask id="mask0" mask-type="alpha" maskUnits="userSpaceOnUse" x="0" y="0" width="34" height="24">
            <rect width="33.6" height="24" rx="2" fill="white"/>
        </mask>
        <g mask="url(#mask0)">
            <path fill-rule="evenodd" clip-rule="evenodd" d="M33.6 0H0V1.6H33.6V0ZM33.6 3.19969H0V4.79969H33.6V3.19969ZM0 6.40017H33.6V8.00017H0V6.40017ZM33.6 9.59985H0V11.1999H33.6V9.59985ZM0 12.7999H33.6V14.3999H0V12.7999ZM33.6 16.0004H0V17.6004H33.6V16.0004ZM0 19.2001H33.6V20.8001H0V19.2001ZM33.6 22.3998H0V23.9998H33.6V22.3998Z" fill="#D02F44"/>
            <rect width="14.4" height="11.2" fill="#46467F"/>
            <g filter="url(#filter0_d)">
                <path fill-rule="evenodd" clip-rule="evenodd" d="M3.19982 2.40034C3.19982 2.84217 2.84165 3.20034 2.39982 3.20034C1.958 3.20034 1.59982 2.84217 1.59982 2.40034C1.59982 1.95851 1.958 1.60034 2.39982 1.60034C2.84165 1.60034 3.19982 1.95851 3.19982 2.40034ZM6.40004 2.40034C6.40004 2.84217 6.04187 3.20034 5.60004 3.20034C5.15821 3.20034 4.80004 2.84217 4.80004 2.40034C4.80004 1.95851 5.15821 1.60034 5.60004 1.60034C6.04187 1.60034 6.40004 1.95851 6.40004 2.40034ZM8.79966 3.20034C9.24149 3.20034 9.59966 2.84217 9.59966 2.40034C9.59966 1.95851 9.24149 1.60034 8.79966 1.60034C8.35783 1.60034 7.99966 1.95851 7.99966 2.40034C7.99966 2.84217 8.35783 3.20034 8.79966 3.20034ZM12.7999 2.40034C12.7999 2.84217 12.4417 3.20034 11.9999 3.20034C11.558 3.20034 11.1999 2.84217 11.1999 2.40034C11.1999 1.95851 11.558 1.60034 11.9999 1.60034C12.4417 1.60034 12.7999 1.95851 12.7999 2.40034ZM3.99965 4.80058C4.44147 4.80058 4.79965 4.44241 4.79965 4.00058C4.79965 3.55875 4.44147 3.20058 3.99965 3.20058C3.55782 3.20058 3.19965 3.55875 3.19965 4.00058C3.19965 4.44241 3.55782 4.80058 3.99965 4.80058ZM7.99984 4.00058C7.99984 4.44241 7.64167 4.80058 7.19984 4.80058C6.75801 4.80058 6.39984 4.44241 6.39984 4.00058C6.39984 3.55875 6.75801 3.20058 7.19984 3.20058C7.64167 3.20058 7.99984 3.55875 7.99984 4.00058ZM10.4001 4.80058C10.8419 4.80058 11.2001 4.44241 11.2001 4.00058C11.2001 3.55875 10.8419 3.20058 10.4001 3.20058C9.95823 3.20058 9.60005 3.55875 9.60005 4.00058C9.60005 4.44241 9.95823 4.80058 10.4001 4.80058ZM12.7999 5.60003C12.7999 6.04186 12.4417 6.40003 11.9999 6.40003C11.558 6.40003 11.1999 6.04186 11.1999 5.60003C11.1999 5.1582 11.558 4.80003 11.9999 4.80003C12.4417 4.80003 12.7999 5.1582 12.7999 5.60003ZM8.79966 6.40003C9.24149 6.40003 9.59966 6.04186 9.59966 5.60003C9.59966 5.1582 9.24149 4.80003 8.79966 4.80003C8.35783 4.80003 7.99966 5.1582 7.99966 5.60003C7.99966 6.04186 8.35783 6.40003 8.79966 6.40003ZM6.40004 5.60003C6.40004 6.04186 6.04187 6.40003 5.60004 6.40003C5.15821 6.40003 4.80004 6.04186 4.80004 5.60003C4.80004 5.1582 5.15821 4.80003 5.60004 4.80003C6.04187 4.80003 6.40004 5.1582 6.40004 5.60003ZM2.39982 6.40003C2.84165 6.40003 3.19982 6.04186 3.19982 5.60003C3.19982 5.1582 2.84165 4.80003 2.39982 4.80003C1.958 4.80003 1.59982 5.1582 1.59982 5.60003C1.59982 6.04186 1.958 6.40003 2.39982 6.40003ZM4.79965 7.20027C4.79965 7.6421 4.44147 8.00027 3.99965 8.00027C3.55782 8.00027 3.19965 7.6421 3.19965 7.20027C3.19965 6.75844 3.55782 6.40027 3.99965 6.40027C4.44147 6.40027 4.79965 6.75844 4.79965 7.20027ZM7.19984 8.00027C7.64167 8.00027 7.99984 7.6421 7.99984 7.20027C7.99984 6.75844 7.64167 6.40027 7.19984 6.40027C6.75801 6.40027 6.39984 6.75844 6.39984 7.20027C6.39984 7.6421 6.75801 8.00027 7.19984 8.00027ZM11.2001 7.20027C11.2001 7.6421 10.8419 8.00027 10.4001 8.00027C9.95823 8.00027 9.60005 7.6421 9.60005 7.20027C9.60005 6.75844 9.95823 6.40027 10.4001 6.40027C10.8419 6.40027 11.2001 6.75844 11.2001 7.20027ZM11.9999 9.60051C12.4417 9.60051 12.7999 9.24234 12.7999 8.80051C12.7999 8.35868 12.4417 8.00051 11.9999 8.00051C11.558 8.00051 11.1999 8.35868 11.1999 8.80051C11.1999 9.24234 11.558 9.60051 11.9999 9.60051ZM9.59966 8.80051C9.59966 9.24234 9.24149 9.60051 8.79966 9.60051C8.35783 9.60051 7.99966 9.24234 7.99966 8.80051C7.99966 8.35868 8.35783 8.00051 8.79966 8.00051C9.24149 8.00051 9.59966 8.35868 9.59966 8.80051ZM5.60004 9.60051C6.04187 9.60051 6.40004 9.24234 6.40004 8.80051C6.40004 8.35868 6.04187 8.00051 5.60004 8.00051C5.15821 8.00051 4.80004 8.35868 4.80004 8.80051C4.80004 9.24234 5.15821 9.60051 5.60004 9.60051ZM3.19982 8.80051C3.19982 9.24234 2.84165 9.60051 2.39982 9.60051C1.958 9.60051 1.59982 9.24234 1.59982 8.80051C1.59982 8.35868 1.958 8.00051 2.39982 8.00051C2.84165 8.00051 3.19982 8.35868 3.19982 8.80051Z" fill="url(#paint0_linear)"/>
            </g>
        </g>
    </g>
    <g clip-path="url(#clip1)">
        <path d="M149.456 23.4814C149.422 23.4032 149.398 23.3207 149.354 23.2508C148.345 21.6605 147.335 20.0745 146.326 18.4852C146.305 18.4529 146.289 18.4164 146.265 18.3705L149.438 9.40594L152.971 15.8139L157.989 1.72177H162.852C164.395 6.38507 165.941 11.0546 167.481 15.7044C167.534 15.7148 167.543 15.72 167.552 15.7169C167.562 15.7148 167.57 15.7065 167.576 15.6981C167.603 15.6459 167.632 15.5948 167.657 15.5426L174.077 1.75829C174.08 1.74994 174.089 1.74264 174.107 1.72281H180.392C180.361 1.80942 180.34 1.88977 180.306 1.96281C179.325 4.19064 178.342 6.41846 177.363 8.64524C176.303 11.0494 175.249 13.4567 174.192 15.8619C173.117 18.3026 172.039 20.7423 170.966 23.184C170.924 23.28 170.899 23.3833 170.867 23.4814H164.551C164.53 23.3708 164.52 23.255 164.483 23.1485C163.776 21.0699 163.065 18.9913 162.355 16.9138L160.779 12.2985L160.302 10.9054C160.223 10.9802 160.164 11.0742 160.13 11.1788C159.849 11.9635 159.573 12.7492 159.292 13.5339C158.411 15.9934 157.528 18.456 156.643 20.9165C156.335 21.7722 156.021 22.6279 155.709 23.4814H149.456ZM130.004 23.4814C130.007 23.3666 130.012 23.2519 130.012 23.136L130.013 2.07238V1.71655C130.086 1.71133 130.135 1.70507 130.186 1.70507C133.512 1.70507 136.838 1.69777 140.164 1.71342C141.4 1.71968 142.612 1.90542 143.765 2.34264C145.095 2.84768 146.148 3.65846 146.947 4.79585L143.122 15.6073C142.77 15.7451 142.404 15.7858 142.046 15.8452C141.339 15.9621 140.624 15.9809 139.909 15.9809H136.029C136.021 16.1228 136.01 16.2355 136.01 16.3461V22.559C136.01 22.8658 136.005 23.1736 136.003 23.4814H130.003H130.004ZM136.027 11.7736C136.126 11.7851 136.187 11.7976 136.248 11.7976C136.944 11.7976 137.639 11.8132 138.333 11.7934C138.856 11.7757 139.379 11.7548 139.896 11.6442C140.873 11.4313 141.563 10.9221 141.876 10.0414C142.169 9.21394 142.18 8.37603 141.833 7.55481C141.559 6.91307 141.076 6.4529 140.37 6.19829C139.804 5.99794 139.21 5.92698 138.611 5.91551C137.823 5.90194 137.032 5.91133 136.242 5.91133C136.174 5.91133 136.105 5.92594 136.026 5.93638V11.7746L136.027 11.7736ZM186.532 23.4814C186.511 23.399 186.504 23.3124 186.471 23.2331C186.007 22.0404 185.538 20.8456 185.068 19.6539C185.06 19.6362 185.045 19.6226 185.008 19.5746C184.913 19.5705 184.79 19.5611 184.668 19.5611C182.09 19.559 179.512 19.559 176.934 19.559C176.81 19.559 176.685 19.5548 176.516 19.5517L178.326 15.3496H183.587L181.092 8.93951L184.202 1.73116C184.331 2.04003 184.436 2.29151 184.54 2.54507L189.089 13.6018L193.001 23.1214C193.044 23.2268 193.107 23.3239 193.162 23.424C193.152 23.4449 193.142 23.4783 193.131 23.4804C193.046 23.4835 192.963 23.4826 192.878 23.4826H186.531L186.532 23.4814Z" fill="#F26323"/>
        <path d="M34.2577 2.78816C35.7636 1.69042 37.678 1.1426 40.0031 1.1426C42.7724 1.1426 45.1473 1.72173 47.128 2.88208V8.15999C45.3063 6.75129 43.0852 6.06886 40.4585 6.1106C38.6592 6.13147 37.7585 6.5979 37.7585 7.50677C37.7585 7.9419 38.0336 8.33112 38.5787 8.67129C39.1238 9.0146 39.8054 9.30364 40.6246 9.54051C41.4427 9.78051 42.3271 10.0988 43.2767 10.5047C44.1914 10.889 45.078 11.3399 45.9298 11.8539C46.749 12.3516 47.4306 13.0591 47.9757 13.9805C48.5218 14.9029 48.7949 15.9631 48.7949 17.1642C48.7949 21.5927 45.9645 23.8069 40.3077 23.8069C37.2134 23.8069 34.4951 23.1454 32.1517 21.8212V16.3868C34.4747 18.0219 37.0524 18.8389 39.8818 18.8389C41.0128 18.8389 41.8218 18.7315 42.3067 18.5134C42.7917 18.2963 43.0352 17.9186 43.0352 17.3802C43.0352 16.8219 42.6562 16.3346 41.8982 15.9214C41.1401 15.5071 40.2201 15.1179 39.1391 14.7569C38.0363 14.3864 36.9535 13.9566 35.895 13.4692C34.815 12.9715 33.894 12.217 33.1359 11.2028C32.3779 10.1885 31.9999 8.96764 31.9999 7.53808C31.9999 5.46886 32.7538 3.8859 34.2587 2.78816H34.2577ZM52.8663 10.0226C54.5128 8.63477 56.4894 7.9419 58.792 7.9419C60.3896 7.9419 61.8843 8.28312 63.2791 8.96764V13.4692C62.158 12.7948 60.8808 12.4405 59.5806 12.4435C58.4487 12.4435 57.5195 12.7242 56.792 13.2824C56.0645 13.8417 55.6987 14.7099 55.6987 15.8911C55.6987 17.0076 56.0645 17.856 56.792 18.4351C57.5195 19.0163 58.4181 19.3054 59.4889 19.3054C60.9856 19.3054 62.298 18.9736 63.4309 18.312V22.8136C61.8751 23.4772 60.2072 23.8069 58.4283 23.8069C56.2051 23.8069 54.31 23.16 52.743 21.8661C51.178 20.5732 50.3945 18.6835 50.3945 16.2C50.3945 13.4692 51.2178 11.4094 52.8653 10.0226H52.8663ZM70.9145 19.8177C71.2365 20.0984 71.6613 20.2372 72.1881 20.2372C73.0969 20.2372 73.8957 19.9795 74.5824 19.4609V17.4417C73.9845 17.2484 73.3602 17.1543 72.7332 17.1631C71.1967 17.1631 70.4306 17.7016 70.4306 18.7774C70.4306 19.1916 70.5905 19.5381 70.9145 19.8177ZM80.7364 20.0202C80.9381 20.0202 81.1307 19.9889 81.3131 19.9263V23.1861C80.5438 23.4981 79.6747 23.6525 78.7048 23.6525C77.0889 23.6525 75.9365 23.1047 75.2488 22.0059C73.7541 23.208 72.0648 23.808 70.187 23.808C68.7515 23.808 67.5482 23.3948 66.5782 22.5652C65.6082 21.7388 65.1233 20.6212 65.1233 19.2125C65.1233 18.3214 65.3169 17.5409 65.6999 16.8689C66.0594 16.2195 66.5901 15.6868 67.2313 15.3318C67.861 14.9824 68.5337 14.7213 69.2313 14.5555C69.9522 14.387 70.6896 14.3036 71.429 14.3071C72.5202 14.3071 73.5717 14.4219 74.5824 14.6483V14.1203C74.5824 13.5621 74.3236 13.1113 73.8081 12.7701C73.2936 12.4289 72.5406 12.2588 71.5513 12.2588C70.0159 12.2588 68.3174 12.6417 66.457 13.4066V8.9666C68.4387 8.30399 70.3276 7.97425 72.1259 7.97425C74.612 7.97425 76.502 8.50121 77.7959 9.55616C79.0899 10.6132 79.7359 12.4017 79.7359 14.928V19.0883C79.7359 19.7103 80.0701 20.0202 80.7364 20.0202ZM92.3413 7.97321C94.2405 7.97321 95.6862 8.54712 96.6766 9.69703C97.6669 10.8449 98.1621 12.3109 98.1621 14.0901V23.3426H93.0097V14.8038C93.0097 14.0389 92.8059 13.4577 92.4035 13.0654C91.9979 12.672 91.463 12.4748 90.7957 12.4748C89.8053 12.4748 88.977 12.9099 88.3096 13.7791V23.3426H83.1572V8.4386H87.7034V10.1457C89.0178 8.69842 90.5634 7.97321 92.3423 7.97321H92.3413ZM110.585 12.8629C110.057 12.5004 109.433 12.3112 108.797 12.3203C107.785 12.3203 107.014 12.672 106.477 13.3743C105.942 14.0796 105.674 14.9165 105.674 15.8901C105.674 16.8636 105.942 17.7016 106.477 18.4049C107.013 19.1082 107.785 19.4609 108.797 19.4609C109.463 19.4609 110.059 19.2803 110.585 18.9183C111.111 18.5562 111.494 18.1148 111.736 17.5983V14.1829C111.494 13.6664 111.111 13.225 110.585 12.8629ZM116.891 1.60799V23.3426H112.344V21.3235C111.939 22.0278 111.317 22.6174 110.479 23.0932C109.641 23.569 108.615 23.8069 107.402 23.8069C106.229 23.8069 105.179 23.5805 104.249 23.1245C103.32 22.6696 102.583 22.0591 102.036 21.2932C101.489 20.5249 101.069 19.6701 100.793 18.7628C100.508 17.8331 100.365 16.8643 100.368 15.8901C100.368 14.8967 100.511 13.9388 100.793 13.0184C101.069 12.1107 101.489 11.2556 102.036 10.4869C102.583 9.72208 103.32 9.11164 104.249 8.65564C105.179 8.20069 106.229 7.97321 107.401 7.97321C109.241 7.97321 110.686 8.53251 111.737 9.65008V1.60695H116.891V1.60799ZM120.007 23.3416H125.161V8.4386H120.007V23.3416ZM124.69 5.59721C124.135 6.08451 123.432 6.32869 122.583 6.32869C121.734 6.32869 121.033 6.08451 120.476 5.59825C119.92 5.11095 119.644 4.38155 119.644 3.40903C119.644 2.45634 119.926 1.73842 120.492 1.25112C121.057 0.763815 121.755 0.521729 122.583 0.521729C123.432 0.521729 124.135 0.764859 124.689 1.25112C125.246 1.73738 125.525 2.45634 125.525 3.41008C125.525 4.38155 125.246 5.11095 124.689 5.59721H124.69Z" fill="#505865"/>
    </g>
    <defs>
        <filter id="filter0_d" x="1.59982" y="1.60034" width="11.2" height="9.00017" filterUnits="userSpaceOnUse" color-interpolation-filters="sRGB">
            <feFlood flood-opacity="0" result="BackgroundImageFix"/>
            <feColorMatrix in="SourceAlpha" type="matrix" values="0 0 0 0 0 0 0 0 0 0 0 0 0 0 0 0 0 0 127 0"/>
            <feOffset dy="1"/>
            <feColorMatrix type="matrix" values="0 0 0 0 0 0 0 0 0 0 0 0 0 0 0 0 0 0 0.06 0"/>
            <feBlend mode="normal" in2="BackgroundImageFix" result="effect1_dropShadow"/>
            <feBlend mode="normal" in="SourceGraphic" in2="effect1_dropShadow" result="shape"/>
        </filter>
        <linearGradient id="paint0_linear" x1="1.59982" y1="1.60034" x2="1.59982" y2="9.60051" gradientUnits="userSpaceOnUse">
            <stop stop-color="white"/>
            <stop offset="1" stop-color="#F0F0F0"/>
        </linearGradient>
        <clipPath id="clip0">
            <path d="M0 12C0 5.37258 5.37258 0 12 0C18.6274 0 24 5.37258 24 12C24 18.6274 18.6274 24 12 24C5.37258 24 0 18.6274 0 12Z" fill="white"/>
        </clipPath>
        <clipPath id="clip1">
            <rect width="162" height="24" fill="white" transform="translate(31.9999)"/>
        </clipPath>
    </defs>
</svg>
