<svg width="24" height="24" viewBox="0 0 24 24" fill="none" xmlns="http://www.w3.org/2000/svg">
<path d="M6.18899 14.3472L4.69899 20.7992C4.60699 21.1982 4.76699 21.6132 5.10499 21.8462C5.27599 21.9642 5.47399 22.0242 5.67299 22.0242C5.86599 22.0242 6.05999 21.9682 6.22799 21.8562L11.673 18.2262L17.118 21.8562C17.466 22.0882 17.923 22.0792 18.263 21.8322C18.601 21.5852 18.75 21.1522 18.635 20.7502L16.806 14.3502L21.342 10.2682C21.639 10.0002 21.748 9.58217 21.62 9.20417C21.491 8.82617 21.15 8.56017 20.752 8.52817L15.051 8.07417L12.584 2.61317C12.423 2.25417 12.066 2.02417 11.673 2.02417C11.28 2.02417 10.923 2.25417 10.762 2.61317L8.29499 8.07417L2.59399 8.52717C2.20199 8.55817 1.86499 8.81517 1.73299 9.18417C1.59899 9.55317 1.69499 9.96617 1.97499 10.2402L6.18899 14.3472ZM9.04199 10.0212C9.40499 9.99217 9.72499 9.76817 9.87399 9.43517L11.673 5.45417L13.472 9.43517C13.621 9.76817 13.941 9.99217 14.304 10.0212L18.276 10.3362L15.005 13.2802C14.721 13.5362 14.608 13.9302 14.712 14.2982L15.965 18.6832L12.229 16.1922C11.893 15.9672 11.456 15.9672 11.12 16.1922L7.21599 18.7952L8.26599 14.2492C8.34399 13.9092 8.23999 13.5522 7.98999 13.3092L4.95199 10.3472L9.04199 10.0212Z" fill="#000000"/>
</svg>
