<svg width="24" height="24" viewBox="0 0 24 24" fill="none" xmlns="http://www.w3.org/2000/svg">
<path d="M21.9471 9.179C21.8181 8.801 21.4771 8.534 21.0791 8.503L15.3779 8.05L12.9108 2.589C12.7498 2.23 12.3928 2 11.9998 2C11.6068 2 11.2498 2.23 11.0888 2.588L8.62171 8.05L2.92052 8.503C2.52951 8.534 2.1925 8.791 2.05949 9.16C1.92649 9.529 2.02049 9.942 2.3015 10.216L6.51464 14.323L5.02459 20.775C4.93259 21.174 5.09359 21.589 5.4306 21.822C5.60261 21.94 5.80061 22 5.99962 22C6.19263 22 6.38663 21.944 6.55464 21.832L11.9998 18.202L17.445 21.832C17.793 22.064 18.25 22.055 18.59 21.808C18.928 21.561 19.077 21.128 18.962 20.726L17.133 14.326L21.6691 10.244C21.9661 9.976 22.0751 9.558 21.9471 9.179Z" fill="#000000"/>
</svg>
