<svg width="24" height="24" viewBox="0 0 24 24" fill="none" xmlns="http://www.w3.org/2000/svg">
<path d="M5.02496 20.775C4.93296 21.174 5.09296 21.589 5.43096 21.822C5.60296 21.94 5.80096 22 5.99996 22C6.19296 22 6.38696 21.944 6.55496 21.832L12 18.202L17.445 21.832C17.793 22.064 18.249 22.055 18.59 21.808C18.928 21.561 19.077 21.128 18.962 20.726L17.133 14.326L21.669 10.244C21.966 9.977 22.075 9.558 21.947 9.18C21.818 8.802 21.477 8.535 21.079 8.504L15.378 8.05L12.911 2.589C12.75 2.23 12.393 2 12 2C11.607 2 11.25 2.23 11.089 2.588L8.62196 8.05L2.92096 8.503C2.52896 8.534 2.19196 8.791 2.05996 9.16C1.92596 9.529 2.02196 9.942 2.30196 10.216L6.51596 14.323L5.02496 20.775ZM12 5.429L14.042 9.95L14.63 9.997C14.631 9.997 14.631 9.997 14.631 9.997L18.603 10.312L15.332 13.256C15.331 13.257 15.331 13.257 15.331 13.258L14.868 13.674L15.039 14.271C15.039 14.271 15.039 14.273 15.039 14.274L16.292 18.659L12 15.798V5.429Z" fill="#000000"/>
</svg>
