<svg width="24" height="24" viewBox="0 0 24 24" fill="none" xmlns="http://www.w3.org/2000/svg">
<path d="M19.633 7.99704C19.646 8.17204 19.646 8.34604 19.646 8.52004C19.646 13.845 15.593 19.981 8.186 19.981C5.904 19.981 3.784 19.32 2 18.172C2.324 18.209 2.636 18.222 2.973 18.222C4.856 18.222 6.589 17.586 7.974 16.501C6.203 16.464 4.719 15.304 4.207 13.708C4.456 13.745 4.706 13.77 4.968 13.77C5.329 13.77 5.692 13.72 6.029 13.633C4.182 13.259 2.799 11.638 2.799 9.68004V9.63004C3.336 9.92904 3.959 10.116 4.619 10.141C3.534 9.41904 2.823 8.18404 2.823 6.78704C2.823 6.03904 3.022 5.35304 3.371 4.75504C5.354 7.19804 8.335 8.79504 11.677 8.97004C11.615 8.67004 11.577 8.35904 11.577 8.04704C11.577 5.82704 13.373 4.01904 15.605 4.01904C16.765 4.01904 17.812 4.50504 18.548 5.29104C19.458 5.11604 20.33 4.77904 21.104 4.31804C20.805 5.25304 20.168 6.03904 19.333 6.53804C20.144 6.45004 20.93 6.22604 21.652 5.91404C21.104 6.71204 20.419 7.42304 19.633 7.99704Z" fill="#0A0903"/>
</svg>
