<svg xmlns="http://www.w3.org/2000/svg" xmlns:xlink="http://www.w3.org/1999/xlink" width="115" height="17" viewBox="0 0 115 17">
    <defs>
        <path id="a" d="M0 .552h11.923v15.385H0z"/>
        <path id="c" d="M.007.231H11.5V10.98H.007z"/>
        <path id="e" d="M0 16.161h114.405V.354H0z"/>
    </defs>
    <g fill="none" fill-rule="evenodd">
        <path fill="#F26323" fill-rule="nonzero" d="M83.38 15.94c-.025-.053-.042-.11-.073-.157-.716-1.08-1.434-2.156-2.15-3.235-.015-.022-.026-.046-.043-.078l2.252-6.085 2.509 4.35 3.561-9.566h3.453l3.286 9.491c.038.008.044.011.05.009.007-.001.014-.008.017-.013.02-.035.04-.07.057-.105l4.558-9.357c.002-.006.009-.011.022-.025h4.461c-.022.06-.037.114-.06.164-.697 1.512-1.395 3.024-2.09 4.536-.752 1.632-1.5 3.266-2.251 4.899-.763 1.656-1.528 3.313-2.29 4.97-.03.065-.047.135-.07.202h-4.484c-.015-.075-.022-.154-.048-.226-.502-1.411-1.007-2.822-1.511-4.232a3610.726 3610.726 0 0 1-1.457-4.08.442.442 0 0 0-.123.187l-.594 1.598c-.626 1.67-1.252 3.341-1.88 5.012-.22.58-.443 1.16-.664 1.741h-4.439zm-9.534-7.948c.07.008.114.016.158.016.493 0 .987.011 1.48-.003.37-.011.743-.025 1.11-.1.693-.145 1.182-.49 1.404-1.089.209-.562.216-1.13-.03-1.688-.194-.436-.537-.748-1.038-.92a4.096 4.096 0 0 0-1.25-.192c-.559-.01-1.12-.004-1.68-.004-.05 0-.098.011-.154.017v3.963zm-4.275 7.948c.002-.079.005-.156.005-.235l.001-14.298v-.242c.052-.003.087-.008.123-.008 2.36 0 4.722-.005 7.083.006.878.004 1.738.13 2.556.427.945.343 1.692.893 2.259 1.666l-2.716 7.339c-.25.093-.508.12-.763.161-.502.08-1.01.092-1.517.092h-2.754c-.005.096-.013.173-.013.248v4.217c0 .208-.004.418-.005.627h-4.26zm40.127 0c-.014-.056-.02-.115-.042-.169a763.5 763.5 0 0 0-.996-2.43c-.006-.012-.016-.021-.042-.053-.069-.003-.156-.01-.242-.01h-5.491c-.088 0-.176-.004-.296-.006l1.284-2.853h3.736l-1.772-4.35 2.208-4.894c.09.21.166.38.24.553l3.23 7.505c.926 2.154 1.85 4.309 2.777 6.463.03.07.074.137.113.205-.007.013-.014.037-.022.038-.06.002-.12.001-.18.001h-4.505z"/>
        <g transform="translate(0 .223)">
            <mask id="b" fill="#fff">
                <use xlink:href="#a"/>
            </mask>
            <path fill="#505865" d="M1.603 1.669C2.672.924 4.03.552 5.68.552c1.966 0 3.652.393 5.058 1.18v3.583c-1.292-.955-2.87-1.419-4.735-1.39-1.277.013-1.916.33-1.916.947 0 .296.195.56.582.79.387.234.871.43 1.453.59.58.163 1.208.38 1.882.655.675.273 1.303.58 1.883.916.582.338 1.066.818 1.453 1.444s.582 1.345.582 2.161c0 3.006-2.01 4.51-6.026 4.51-2.196 0-4.126-.45-5.79-1.349V10.9c1.65 1.11 3.48 1.665 5.488 1.665.803 0 1.377-.073 1.722-.221.344-.148.517-.404.517-.77 0-.379-.27-.71-.808-.99a12.433 12.433 0 0 0-1.958-.79 23.698 23.698 0 0 1-2.303-.875A5.033 5.033 0 0 1 .807 7.381c-.538-.689-.808-1.517-.808-2.487 0-1.405.535-2.48 1.604-3.225" mask="url(#b)"/>
        </g>
        <path fill="#505865" d="M14.812 6.803c1.17-.94 2.572-1.412 4.207-1.412 1.134 0 2.195.232 3.186.696v3.056a5.245 5.245 0 0 0-2.626-.696c-.804 0-1.463.19-1.98.57-.516.379-.776.969-.776 1.77 0 .758.26 1.334.776 1.727.517.395 1.154.591 1.915.591 1.062 0 1.994-.225 2.798-.675v3.056a9.31 9.31 0 0 1-3.55.675c-1.58 0-2.925-.439-4.037-1.318-1.11-.877-1.667-2.16-1.667-3.846 0-1.854.584-3.252 1.754-4.194"/>
        <g transform="translate(23.506 5.182)">
            <mask id="d" fill="#fff">
                <use xlink:href="#c"/>
            </mask>
            <path fill="#505865" fill-rule="nonzero" d="M4.118 8.271c.229.19.53.285.904.285.645 0 1.213-.175 1.7-.527v-1.37a4.251 4.251 0 0 0-1.313-.19c-1.09 0-1.635.366-1.635 1.096a.88.88 0 0 0 .344.706m6.973.137c.143 0 .28-.021.409-.064v2.214c-.546.211-1.163.316-1.851.316-1.148 0-1.966-.372-2.454-1.118a5.744 5.744 0 0 1-3.593 1.223c-1.02 0-1.873-.28-2.562-.843C.351 9.575.007 8.816.007 7.86c0-.605.137-1.135.41-1.59a2.73 2.73 0 0 1 1.086-1.044c.452-.24.926-.414 1.42-.527a7.008 7.008 0 0 1 1.56-.169c.775 0 1.522.078 2.239.232v-.358c0-.38-.184-.686-.55-.917-.365-.232-.9-.348-1.602-.348-1.09 0-2.295.26-3.616.78V.905C2.36.455 3.701.23 4.978.23c1.765 0 3.106.358 4.025 1.074.918.718 1.377 1.932 1.377 3.647v2.824c0 .422.238.632.71.632" mask="url(#d)"/>
        </g>
        <path fill="#505865" d="M42.835 5.413c1.348 0 2.375.39 3.078 1.17.703.778 1.054 1.774 1.054 2.982v6.28H43.31V10.05c0-.52-.145-.913-.43-1.18-.288-.267-.668-.4-1.142-.4-.703 0-1.291.295-1.764.884v6.492h-3.659V5.728h3.228v1.16c.933-.984 2.03-1.475 3.293-1.475"/>
        <path fill="#505865" fill-rule="nonzero" d="M55.786 8.732a2.259 2.259 0 0 0-1.27-.369c-.718 0-1.266.24-1.646.716-.38.478-.57 1.047-.57 1.708 0 .66.19 1.229.57 1.707.38.477.928.716 1.646.716a2.25 2.25 0 0 0 1.27-.368c.373-.246.645-.546.818-.896V9.627a2.277 2.277 0 0 0-.818-.895zm4.476-7.64v14.753h-3.228v-1.37c-.287.478-.729.878-1.323 1.201-.596.323-1.324.485-2.185.485-.832 0-1.578-.154-2.238-.463-.66-.31-1.183-.724-1.571-1.244a5.861 5.861 0 0 1-.882-1.718 6.337 6.337 0 0 1-.302-1.95c0-.674.101-1.324.302-1.949.2-.625.494-1.197.882-1.718.388-.52.911-.934 1.57-1.243.661-.31 1.407-.463 2.239-.463 1.306 0 2.331.379 3.078 1.137V1.091h3.658z"/>
        <g>
            <mask id="f" fill="#fff">
                <use xlink:href="#e"/>
            </mask>
            <path fill="#505865" fill-rule="nonzero" d="M62.474 15.844h3.659V5.728h-3.659v10.116zM65.798 3.8c-.393.33-.892.496-1.495.496-.603 0-1.1-.166-1.496-.496-.395-.33-.59-.826-.59-1.486 0-.647.2-1.134.601-1.465.402-.33.897-.495 1.485-.495.603 0 1.102.165 1.495.495.395.33.593.818.593 1.465 0 .66-.198 1.155-.593 1.486z" mask="url(#f)"/>
        </g>
    </g>
</svg>
